PathFileType	4	(X/Y/Z)	/Users/itak/Documents/Research/Walk-IL/dataset/trc/00263_00009.trc
DataRate	CameraRate	NumFrames	NumMarkers	Units	OrigDataRate	OrigDataStartFrame	OrigNumFrames
100.000000	100.000000	4	53	mm	100.000000	142	380
Frame#	Time	RPSI			LPSI			L3			STRN			T10			C7			CLAV			RBAK			LBAK			LSHO			LUPA			LAEL			LAOL			LWTS			LWPS			LFRA			LIFD			LHPS			LHTS			RSHO			RUPA			RAEL			RAOL			RWTS			RWPS			RFRA			RIFD			RHTS			RHPS			RBHD			LFHD			RFHD			LBHD			LHIP			RHIP			RASI			LASI			LKNE			LTHI			LANK			LTIP			LTOE			LMT1			LMT5			LHEE			RKNE			RTHI			RTIP			RTOE			RMT1			RMT5			RHEE			RANK			
		X1	Y1	Z1	X2	Y2	Z2	X3	Y3	Z3	X4	Y4	Z4	X5	Y5	Z5	X6	Y6	Z6	X7	Y7	Z7	X8	Y8	Z8	X9	Y9	Z9	X10	Y10	Z10	X11	Y11	Z11	X12	Y12	Z12	X13	Y13	Z13	X14	Y14	Z14	X15	Y15	Z15	X16	Y16	Z16	X17	Y17	Z17	X18	Y18	Z18	X19	Y19	Z19	X20	Y20	Z20	X21	Y21	Z21	X22	Y22	Z22	X23	Y23	Z23	X24	Y24	Z24	X25	Y25	Z25	X26	Y26	Z26	X27	Y27	Z27	X28	Y28	Z28	X29	Y29	Z29	X30	Y30	Z30	X31	Y31	Z31	X32	Y32	Z32	X33	Y33	Z33	X34	Y34	Z34	X35	Y35	Z35	X36	Y36	Z36	X37	Y37	Z37	X38	Y38	Z38	X39	Y39	Z39	X40	Y40	Z40	X41	Y41	Z41	X42	Y42	Z42	X43	Y43	Z43	X44	Y44	Z44	X45	Y45	Z45	X46	Y46	Z46	X47	Y47	Z47	X48	Y48	Z48	X49	Y49	Z49	X50	Y50	Z50	X51	Y51	Z51	X52	Y52	Z52	X53	Y53	Z53	

143	1.42	-558.4278564453125	1025.182861328125	419.8192138671875	-639.3959350585938	1029.826904296875	332.1090698242188	-611.2409057617188	1112.024658203125	367.5682067871094	-441.7112426757812	1294.869018554688	178.693115234375	-605.241455078125	1238.372436523438	372.30615234375	-569.2457275390625	1498.784301757812	317.3359375	-460.4733276367188	1412.24609375	195.9190826416016	-561.9921875	1362.649291992188	426.0383911132812	-666.150390625	1457.88818359375	264.8019104003906	-653.2991333007812	1455.669311523438	160.8987884521484	-735.8973388671875	1337.15185546875	144.5796661376953	-760.5359497070312	1128.234741210938	135.7800140380859	-756.34521484375	1116.476684570312	222.8612976074219	-668.595703125	890.6360473632812	97.88021087646484	-751.1699829101562	874.982177734375	80.38760375976562	-764.258544921875	1020.06298828125	115.7107925415039	-680.4633178710938	696.132080078125	104.3609237670898	-741.1138305664062	785.3960571289062	74.21109008789062	-673.0490112304688	787.1864013671875	65.35639190673828	-404.2952880859375	1462.959106445312	385.6398315429688	-366.1902770996094	1399.51953125	444.7830200195312	-336.8133544921875	1121.474609375	492.7104187011719	-426.1216735839844	1111.83544921875	461.0820617675781	-276.2691345214844	908.194580078125	359.0553588867188	-257.4389953613281	894.7033081054688	440.2126159667969	-306.9824829101562	1053.70849609375	479.799560546875	-273.7767639160156	715.8980102539062	344.9919128417969	-237.6232147216797	787.8082275390625	337.2678527832031	-228.8909149169922	787.6320190429688	409.4980773925781	-479.4724426269531	1664.291870117188	298.4837646484375	-453.1279296875	1671.877807617188	72.55955505371094	-368.200439453125	1672.545776367188	125.4761428833008	-568.48193359375	1662.01708984375	189.6412506103516	-654.046630859375	969.3567504882812	159.0161437988281	-415.1452941894531	984.492919921875	435.1455993652344	-366.9035949707031	1030.417724609375	342.5845947265625	-548.740966796875	1011.305236816406	130.7216491699219	-491.9385681152344	502.7615661621094	130.1047668457031	-551.05029296875	638.2953491210938	123.6790313720703	-487.1395263671875	34.65618896484375	245.6724853515625	-498.631103515625	271.9870910644531	181.4882049560547	-327.8428649902344	43.39328384399414	88.57862854003906	-324.7885131835938	39.49595260620117	170.5615997314453	-434.4908752441406	39.14453887939453	128.7456512451172	-473.7164916992188	40.52888488769531	324.1750183105469	-390.8996276855469	493.5760192871094	419.6720275878906	-367.1602478027344	761.7219848632812	407.7727661132812	-446.778076171875	391.093017578125	449.959228515625	-627.5391235351562	53.9542236328125	536.1210327148438	-682.8757934570312	94.00981903076172	520.2227172851562	-658.7059326171875	109.8733825683594	635.4686279296875	-780.2430419921875	253.8949584960938	624.2981567382812	-721.95458984375	199.3972015380859	652.9688720703125	
144	1.43	-552.47265625	1024.952514648438	415.0390625	-634.1281127929688	1030.159545898438	327.84912109375	-605.8906860351562	1112.319580078125	363.0823974609375	-437.1615905761719	1295.333740234375	173.3913421630859	-600.1293334960938	1238.800048828125	367.1724548339844	-564.4617919921875	1499.223266601562	312.2975769042969	-455.8562316894531	1412.697387695312	190.7338104248047	-557.001708984375	1362.89892578125	420.8937072753906	-661.5254516601562	1458.364135742188	259.8466186523438	-648.6192626953125	1456.129516601562	155.9860687255859	-730.8017578125	1337.51513671875	139.0869140625	-754.48095703125	1128.481689453125	128.7213897705078	-751.0296020507812	1116.195556640625	215.7429046630859	-660.1909790039062	892.07763671875	89.72032928466797	-742.3367919921875	875.7781372070312	71.35391235351562	-757.1434326171875	1020.414306640625	107.7996063232422	-669.3543090820312	697.574951171875	93.3740234375	-731.0615234375	786.4013671875	64.12970733642578	-663.0642700195312	789.2667236328125	55.60048675537109	-399.4476623535156	1463.299926757812	380.4318542480469	-361.18310546875	1399.80126953125	439.4516296386719	-331.3042907714844	1121.650512695312	486.5938110351562	-420.5143127441406	1111.861206054688	454.7709350585938	-269.8278198242188	908.74072265625	352.9058837890625	-251.1996459960938	895.233642578125	434.122314453125	-301.2901916503906	1054.043823242188	473.6578063964844	-266.2078857421875	716.4830322265625	338.6065979003906	-230.4513397216797	788.6259765625	331.1298522949219	-222.1923675537109	788.3538208007812	403.4295349121094	-474.5670776367188	1664.786499023438	293.1190490722656	-449.0498657226562	1672.338500976562	67.10354614257812	-363.91357421875	1673.027465820312	119.7224884033203	-563.9605712890625	1662.481689453125	184.6048736572266	-650.6893310546875	969.8385620117188	154.7493896484375	-409.0051879882812	984.32763671875	428.6262817382812	-361.6190490722656	1030.55322265625	335.8472595214844	-545.4949340820312	1011.988586425781	125.5302658081055	-490.6703491210938	502.2770385742188	127.9778366088867	-548.983642578125	638.1913452148438	120.8049468994141	-487.1027526855469	34.67445755004883	245.706787109375	-498.0899353027344	271.7782592773438	180.5843048095703	-327.8093872070312	43.3315315246582	88.56450653076172	-324.7940368652344	39.47314453125	170.5185241699219	-434.5630187988281	39.08661651611328	128.7252502441406	-473.67919921875	40.59774398803711	324.2023010253906	-377.1052856445312	493.859130859375	407.7577209472656	-358.3109741210938	762.4631958007812	398.8169860839844	-432.5166320800781	391.7491455078125	438.5491333007812	-609.9959716796875	55.94132995605469	530.0121459960938	-665.9988403320312	95.26945495605469	514.1812744140625	-640.8505859375	113.4276504516602	628.7837524414062	-764.8262329101562	255.313232421875	616.8778686523438	-705.4439697265625	202.1333923339844	645.6005859375	
145	1.44	-546.5466918945312	1024.84912109375	410.3046264648438	-628.9440307617188	1030.48095703125	323.692138671875	-600.5880126953125	1112.645263671875	358.6838989257812	-432.7271118164062	1295.821899414062	168.1294250488281	-595.0990600585938	1239.255493164062	362.197998046875	-559.7093505859375	1499.682373046875	307.38525390625	-451.3414611816406	1413.169921875	185.6237945556641	-552.0185546875	1363.17724609375	415.857177734375	-656.9586791992188	1458.88037109375	255.0750427246094	-644.0576171875	1456.661376953125	151.2498931884766	-725.81787109375	1337.9541015625	133.7594909667969	-748.4364624023438	1128.82666015625	121.7022476196289	-745.7279052734375	1115.949096679688	208.6482849121094	-651.7678833007812	893.697265625	81.47565460205078	-733.4790649414062	876.7891235351562	62.13650894165039	-750.010986328125	1020.9150390625	99.83894348144531	-658.3358154296875	699.2379760742188	82.23489379882812	-720.995361328125	787.6497802734375	53.85056304931641	-653.0514526367188	791.5440063476562	45.73341751098633	-394.6063232421875	1463.661376953125	375.2825317382812	-356.1700134277344	1400.099365234375	434.1756591796875	-325.9051208496094	1121.8330078125	480.5129089355469	-415.0173034667969	1111.909545898438	448.4351196289062	-263.3691711425781	909.331298828125	346.796142578125	-245.0405731201172	895.7872314453125	428.0900268554688	-295.6916809082031	1054.3896484375	467.5604553222656	-258.38232421875	717.195068359375	332.21728515625	-223.1782989501953	789.5350341796875	325.036376953125	-215.4225769042969	789.1507568359375	397.4078369140625	-469.6757202148438	1665.34228515625	287.7555541992188	-444.9866943359375	1672.695190429688	61.65054702758789	-359.6422424316406	1673.401489257812	113.9745712280273	-559.459228515625	1662.981079101562	179.5738067626953	-647.5501098632812	970.2357177734375	150.6832275390625	-402.8804321289062	984.3731689453125	422.0891418457031	-356.4391784667969	1030.787475585938	329.0304565429688	-542.497802734375	1012.660522460938	120.4186172485352	-489.55810546875	501.8004760742188	125.9724349975586	-547.1065063476562	638.0516357421875	118.1103134155273	-487.0563659667969	34.6927604675293	245.7477569580078	-497.6421813964844	271.5968322753906	179.7359466552734	-327.7838134765625	43.27370071411133	88.54692840576172	-324.8020629882812	39.46051788330078	170.4825439453125	-434.6322937011719	39.03330993652344	128.7061462402344	-473.637939453125	40.67380905151367	324.2324829101562	-363.8253479003906	494.4646606445312	395.6505737304688	-349.6221923828125	763.373779296875	389.8302612304688	-418.3896484375	392.531494140625	426.8491821289062	-591.3861083984375	57.36028671264648	522.9163818359375	-648.1729125976562	95.59860229492188	507.3186645507812	-621.88427734375	115.8782043457031	621.2706298828125	-748.722900390625	255.2753143310547	609.1571044921875	-688.0719604492188	203.505859375	637.7188720703125	
146	1.45	-540.64453125	1024.878295898438	405.6104431152344	-623.8252563476562	1030.810180664062	319.6355895996094	-595.3345947265625	1112.995971679688	354.3542785644531	-428.4097290039062	1296.343017578125	162.8898468017578	-590.131103515625	1239.731323242188	357.3931274414062	-554.9852905273438	1500.1611328125	302.5953369140625	-446.9301147460938	1413.673217773438	180.5732116699219	-547.0286254882812	1363.485717773438	410.9181213378906	-652.4450073242188	1459.437866210938	250.4854736328125	-639.6197509765625	1457.273559570312	146.6857757568359	-720.9617309570312	1338.482666015625	128.6096038818359	-742.4381713867188	1129.286743164062	114.7707290649414	-740.4339599609375	1115.755493164062	201.6204223632812	-643.3334350585938	895.5374145507812	73.12137603759766	-724.6275634765625	878.0399169921875	52.78059387207031	-742.8981323242188	1021.5830078125	91.87173461914062	-647.4415893554688	701.1480102539062	70.97616577148438	-710.9547119140625	789.1695556640625	43.4188232421875	-643.0510864257812	794.0421752929688	35.77498626708984	-389.7617797851562	1464.048950195312	370.1709594726562	-351.1388244628906	1400.424682617188	428.9314575195312	-320.5935668945312	1122.043334960938	474.4754943847656	-409.6179504394531	1111.9912109375	442.1123657226562	-256.9222412109375	909.9757080078125	340.7185974121094	-238.9617156982422	896.3764038085938	422.0997009277344	-290.1689147949219	1054.759765625	461.5125427246094	-250.4159393310547	718.0291137695312	325.8363952636719	-215.8652038574219	790.5316772460938	318.9726257324219	-208.6065063476562	790.0240478515625	391.4114990234375	-464.8035583496094	1665.962524414062	282.3999633789062	-440.9503173828125	1672.963256835938	56.20526885986328	-355.3967895507812	1673.68017578125	108.2336502075195	-554.9846801757812	1663.522827148438	174.5577239990234	-644.598388671875	970.5816040039062	146.824951171875	-396.7757873535156	984.6165161132812	415.5417175292969	-351.3774719238281	1031.118286132812	322.1482849121094	-539.7236328125	1013.317749023438	115.3761215209961	-488.613525390625	501.3327026367188	124.0841827392578	-545.4119262695312	637.8884887695312	115.588623046875	-487.0006103515625	34.70839309692383	245.7958221435547	-497.2829284667969	271.4471435546875	178.9420471191406	-327.7682495117188	43.22138214111328	88.52574157714844	-324.8146057128906	39.45906066894531	170.4526824951172	-434.6979370117188	38.98459243774414	128.6880340576172	-473.5946960449219	40.7572135925293	324.2649841308594	-351.0881958007812	495.3628845214844	383.3807983398438	-341.1266174316406	764.4267578125	380.8454284667969	-404.42431640625	393.4142761230469	414.8697204589844	-571.8601684570312	58.1086311340332	514.7352905273438	-629.5257568359375	95.02604675292969	499.5760498046875	-601.957275390625	117.1523818969727	612.8869018554688	-731.9080810546875	253.8104248046875	601.2127685546875	-669.8717651367188	203.4912261962891	629.3531494140625	
